<svg id="Layer_1" data-name="Layer 1" xmlns="http://www.w3.org/2000/svg" xmlns:xlink="http://www.w3.org/1999/xlink" viewBox="0 0 358.29 418.43"><defs><style>.cls-1{fill:url(#linear-gradient);}.cls-2{fill:#ffb336;}.cls-3{fill:url(#Degradado_sin_nombre_12);}.cls-4{fill:url(#linear-gradient-2);}.cls-5{fill:url(#linear-gradient-3);}.cls-6{fill:url(#linear-gradient-4);}.cls-7{fill:url(#linear-gradient-5);}.cls-8{fill:url(#linear-gradient-6);}.cls-9{fill:url(#linear-gradient-7);}.cls-10{fill:url(#linear-gradient-8);}.cls-11{fill:url(#linear-gradient-9);}.cls-12{fill:url(#linear-gradient-10);}.cls-13{fill:url(#linear-gradient-11);}.cls-14{fill:url(#linear-gradient-12);}.cls-15{fill:url(#linear-gradient-13);}.cls-16{fill:url(#linear-gradient-14);}.cls-17{fill:url(#linear-gradient-15);}.cls-18{fill:url(#linear-gradient-16);}.cls-19{fill:url(#linear-gradient-17);}.cls-20{fill:url(#linear-gradient-18);}</style><linearGradient id="linear-gradient" x1="248.73" y1="105.67" x2="247.54" y2="385.74" gradientUnits="userSpaceOnUse"><stop offset="0" stop-color="#00c5da"/><stop offset="0.1" stop-color="#12accc"/><stop offset="0.32" stop-color="#347bb1"/><stop offset="0.52" stop-color="#4f549b"/><stop offset="0.71" stop-color="#62398c"/><stop offset="0.88" stop-color="#6e2882"/><stop offset="1" stop-color="#72227f"/></linearGradient><linearGradient id="Degradado_sin_nombre_12" x1="235.53" y1="132.72" x2="191.38" y2="193.73" gradientUnits="userSpaceOnUse"><stop offset="0" stop-color="#00c5da"/><stop offset="1" stop-color="#72227f"/></linearGradient><linearGradient id="linear-gradient-2" x1="149.06" y1="204.74" x2="173.8" y2="204.74" gradientUnits="userSpaceOnUse"><stop offset="0" stop-color="#00c5da"/><stop offset="0.24" stop-color="#268fbc"/><stop offset="0.49" stop-color="#4660a2"/><stop offset="0.7" stop-color="#5e3e8f"/><stop offset="0.88" stop-color="#6d2a83"/><stop offset="1" stop-color="#72227f"/></linearGradient><linearGradient id="linear-gradient-3" x1="171.36" y1="243.35" x2="193.84" y2="243.35" gradientUnits="userSpaceOnUse"><stop offset="0" stop-color="#00c5da"/><stop offset="0.2" stop-color="#1e9ac2"/><stop offset="0.46" stop-color="#4267a5"/><stop offset="0.7" stop-color="#5c4191"/><stop offset="0.88" stop-color="#6c2a84"/><stop offset="1" stop-color="#72227f"/></linearGradient><linearGradient id="linear-gradient-4" x1="180.02" y1="216.68" x2="218.23" y2="216.68" xlink:href="#linear-gradient-3"/><linearGradient id="linear-gradient-5" x1="180.06" y1="231.05" x2="218.45" y2="231.05" xlink:href="#linear-gradient-3"/><linearGradient id="linear-gradient-6" x1="194.17" y1="189.58" x2="202.63" y2="189.58" xlink:href="#linear-gradient-2"/><linearGradient id="linear-gradient-7" x1="204.79" y1="194.99" x2="213.17" y2="194.99" gradientUnits="userSpaceOnUse"><stop offset="0" stop-color="#00c5da"/><stop offset="0.14" stop-color="#15a7c9"/><stop offset="0.43" stop-color="#3d6ea9"/><stop offset="0.68" stop-color="#5a4592"/><stop offset="0.88" stop-color="#6b2b84"/><stop offset="1" stop-color="#72227f"/></linearGradient><linearGradient id="linear-gradient-8" x1="379.07" y1="302.74" x2="384.49" y2="499.3" gradientUnits="userSpaceOnUse"><stop offset="0" stop-color="#00c5da"/><stop offset="0.33" stop-color="#2d84b6"/><stop offset="0.64" stop-color="#524f98"/><stop offset="0.87" stop-color="#692e86"/><stop offset="1" stop-color="#72227f"/></linearGradient><linearGradient id="linear-gradient-9" x1="84.37" y1="310.87" x2="89.79" y2="507.43" gradientUnits="userSpaceOnUse"><stop offset="0" stop-color="#00c5da"/><stop offset="0.24" stop-color="#2491bd"/><stop offset="0.48" stop-color="#4661a2"/><stop offset="0.7" stop-color="#5e3f8f"/><stop offset="0.88" stop-color="#6d2a83"/><stop offset="1" stop-color="#72227f"/></linearGradient><linearGradient id="linear-gradient-10" x1="317.21" y1="304.45" x2="322.63" y2="501.01" gradientUnits="userSpaceOnUse"><stop offset="0" stop-color="#00c5da"/><stop offset="0.35" stop-color="#3081b4"/><stop offset="0.65" stop-color="#544d97"/><stop offset="0.88" stop-color="#6a2e86"/><stop offset="1" stop-color="#72227f"/></linearGradient><linearGradient id="linear-gradient-11" x1="252.43" y1="306.23" x2="257.85" y2="502.79" gradientUnits="userSpaceOnUse"><stop offset="0" stop-color="#00c5da"/><stop offset="0.16" stop-color="#18a2c7"/><stop offset="0.44" stop-color="#3f6ba8"/><stop offset="0.69" stop-color="#5b4492"/><stop offset="0.88" stop-color="#6c2b84"/><stop offset="1" stop-color="#72227f"/></linearGradient><linearGradient id="linear-gradient-12" x1="284.58" y1="305.35" x2="290" y2="501.91" gradientUnits="userSpaceOnUse"><stop offset="0" stop-color="#00c5da"/><stop offset="0.13" stop-color="#14a9ca"/><stop offset="0.43" stop-color="#3c6faa"/><stop offset="0.68" stop-color="#594593"/><stop offset="0.88" stop-color="#6b2c84"/><stop offset="1" stop-color="#72227f"/></linearGradient><linearGradient id="linear-gradient-13" x1="177.19" y1="308.31" x2="182.62" y2="504.87" gradientUnits="userSpaceOnUse"><stop offset="0" stop-color="#00c5da"/><stop offset="0.21" stop-color="#2098c1"/><stop offset="0.47" stop-color="#4365a5"/><stop offset="0.7" stop-color="#5d4190"/><stop offset="0.88" stop-color="#6c2a84"/><stop offset="1" stop-color="#72227f"/></linearGradient><linearGradient id="linear-gradient-14" x1="116.84" y1="309.97" x2="122.26" y2="506.53" xlink:href="#linear-gradient-2"/><linearGradient id="linear-gradient-15" x1="220.4" y1="307.12" x2="225.82" y2="503.68" xlink:href="#linear-gradient-7"/><linearGradient id="linear-gradient-16" x1="346.48" y1="303.64" x2="351.9" y2="500.2" gradientUnits="userSpaceOnUse"><stop offset="0" stop-color="#00c5da"/><stop offset="0.32" stop-color="#2c87b7"/><stop offset="0.64" stop-color="#525099"/><stop offset="0.87" stop-color="#692f86"/><stop offset="1" stop-color="#72227f"/></linearGradient><linearGradient id="linear-gradient-17" x1="147.04" y1="309.14" x2="152.46" y2="505.7" xlink:href="#linear-gradient-3"/><linearGradient id="linear-gradient-18" x1="413.46" y1="301.79" x2="418.88" y2="498.35" gradientUnits="userSpaceOnUse"><stop offset="0" stop-color="#00c5da"/><stop offset="0.19" stop-color="#19a1c6"/><stop offset="0.58" stop-color="#495da0"/><stop offset="0.86" stop-color="#673288"/><stop offset="1" stop-color="#72227f"/></linearGradient></defs><path class="cls-1" d="M141.35,246.45a17.5,17.5,0,0,1-5.47-7.24c-6.71-17.73-14-35.23-18.57-53.71a304,304,0,0,1-8.59-79.2,6.36,6.36,0,0,1,3.43-6C135,87,157.85,73.65,180.76,60.42c5.47-3.16,9.62-.44,9.65,6,0,1.07-.06,2.15,0,3.22.06,2.12,1,2.78,2.92,1.66l7.14-4.15c13.74-8,27.57-15.87,41.18-24.1,4.77-2.89,8.79-3,13.6-.14C270.71,52.13,286.45,61,302,70.21c3.85,2.29,4.38,1.18,4.44-2.63.14-8.54,4-10.61,11.46-6.32q33.22,19.08,66.43,38.23c2.51,1.44,4.35,3,4.4,6.34.36,24.59-1.47,48.94-7.63,72.84-2.45,2.17-5.22,3.63-8.32,1.79s-1.9-4.77-1.34-7.46a294,294,0,0,0,6.3-51.44c.06-1.91.85-4.32-1.26-5.48s-3.75.76-5.4,1.72q-36.35,21.11-72.63,42.3c-13.09,7.64-26.13,15.36-39.22,23-4.13,2.42-7.18,5.63-6.15,10.68a46.62,46.62,0,0,1,.67,9.54q0,63.66,0,127.3c0,5.24,1.43,6.32,5.41,3.76,21.72-14,42.24-29.41,58.81-49.51,1.21-1.47,3.65-3.13,2.58-4.91-1.31-2.16-4.4-1.78-6.8-1.81-1.82,0-2.77,1.75-3.85,3-12.61,14.79-27.46,27.05-43.13,38.4-1.09.79-2.25,1.91-3.72,1.2s-1-2.42-1-3.71q0-60.66,0-121.32a7.29,7.29,0,0,1,4-7.06q49-28.59,97.94-57.25c3.91-2.28,4.78-1.78,4.46,2.91-.47,6.87-1.18,13.73-2,20.56a296,296,0,0,1-7.93,41c-.31,1.13-1.15,2.42.18,3.36,1.09.78,2.37.35,3.53-.08a20.23,20.23,0,0,0,5.36-3.5c3.13-2.46,6.27-3.16,9.33.16-5.44,19.55-13.66,37.93-23.31,55.72-20.23,37.32-48.66,66.92-84.45,89.57q-7.71,4.89-15.43,9.77a8.14,8.14,0,0,1-9.09.09c-33.87-19.89-64.34-43.65-86.92-76.38-1.12-1.63-2-3.39-3.08-5.09,3.55-6.91,7.41-7.2,12.15-.92.74,1,1.44,2,2.15,3,18.45,25.79,42.14,45.83,68.79,62.61,3.59,2.26,5.16,1.46,5.15-2.7q0-43.37-.22-86.73c.06-16.84-.15-33.69.32-50.52.17-6.08-2-9.52-7.12-12.44-19-10.87-37.72-22.12-56.59-33.15q-26.92-15.75-53.92-31.35c-4.54-2.62-5.67-2.2-5.61,1.92a260.78,260.78,0,0,0,12.09,75.86c.44,1.37.61,3.15,2.6,4.14,0-15.59,0-30.74,0-45.9,0-6.83,4-9.36,10.26-6.63.7.31,1.38.67,2.05,1q39.4,20.67,78.82,41.31c5.75,3,8.57,7.2,8.5,13.88-.12,12.85.29,25.71.48,38.56-.85,1.74-.46,3.61-.47,5.42-.08,11.91,0,23.83-.18,35.75-.1,8.78-3.78,10.95-11.67,6.86-6.5-3.38-12.87-7-19.34-10.44Q172.1,262.7,141.35,246.45ZM222,196.38c-.45-.38-.91-.72-1.4-.11a7.26,7.26,0,0,0,.76.76c3.54,5.33,3.1,6.56-3.05,8.45l5.69,2.89c.91.45,1.59.54,2-.73C227.47,203.68,225.62,198.38,222,196.38Zm-13.21,3.06c1.24,2.64,4.12,2.68,6.22,3.95.37.7.88,1,1.63.57l-.89-1.29c-1.19-3.78-.71-6.69,5.36-7.07l-10.53-5.26c-2.92-2.26-6.41-3.45-9.66-5.08l-1.32-.48Q177.45,172.87,155.31,161c-4.13-2.21-8.32-4.3-12.61-6.51-1.2,10.84-1.17,10.78,7.86,15.46,11.54,6,23,12.12,34.54,18,4.16,2.12,7.93,5.1,12.66,6,2.42,2.53,5.78,3.48,8.72,5.14C207.22,199.44,207.87,200.36,208.79,199.44Zm-29.38-119c-1.82-.63,3.28-7.7-3.4-4-14.88,8.14-29.47,16.82-44.11,25.4-4.3,2.51-4.16,4.45.46,7.13q55.95,32.43,111.92,64.84c3.34,1.94,6.05,1.78,9.31-.13q55.21-32.34,110.51-64.5c5.62-3.28,5.61-4.69,0-7.93q-19.81-11.51-39.68-23c-7-4-7-4-7.06,3.88-.06,6-3.38,8-8.66,5.36-.95-.48-1.84-1.08-2.77-1.62-17.82-10.4-35.68-20.73-53.43-31.24-3-1.77-5.32-1.8-8.32,0q-27.19,16.17-54.58,32C182.53,90.75,179.36,88.88,179.41,80.41Zm-37,94.61v5.41c0,17.3.24,34.61,0,51.92-.08,4.39,1.53,6.58,5.15,8.49,25,13.24,49.94,26.63,74.91,39.94,1,.54,1.92,1.58,3.73,1.12v-3.42c0-18.68-.12-37.37.06-56.06,0-3.61-1.27-5.48-4.35-7.07-24.87-12.83-49.66-25.8-74.5-38.67C145.9,175.94,144.59,174.66,142.37,175Zm172.17,1.4c.06-1.74.26-3.21-1.43-3.37a3.9,3.9,0,0,0-4.34,3.27q-4.5,17.75-8.84,35.51c-.28,1.13-.59,2.63,1.05,3.06a3.45,3.45,0,0,0,4.07-1.32,12,12,0,0,0,1.14-3.45q3.42-13.77,6.81-27.54C313.55,180.36,314.11,178.15,314.54,176.42Zm9.2-2.17c-2.15-.27-3.11,1-3.57,2.79a3,3,0,0,0,2.15,4,27.49,27.49,0,0,0,4,.9c4.5.79,4.58,1,1.6,4.68-2,2.48-4.15,4.89-6,7.51a3.1,3.1,0,0,0,.88,4.47c1.6,1.15,2.57-.29,3.41-1.26,4.11-4.71,8.26-9.4,12.16-14.29,2.48-3.11,1.4-5.8-2.53-6.65S327.8,174.94,323.74,174.25Zm-6.66,62.3c0-1.72.39-2.91-.81-3.55s-2.37-.1-3.39.66c-1.31,1-1.68,2.5-2.05,4q-4,16.26-8,32.52c-.39,1.6-1.1,3.58,1.15,4.3,2.43.78,3.88-1,4.4-3C311.43,259.68,314.31,247.79,317.08,236.55Zm-33.61-31c2.4-2.82,4.28-5,6.09-7.2a36.41,36.41,0,0,0,3-4,3.15,3.15,0,0,0-.65-4.18c-1.65-1.5-2.92,0-3.85,1-4.07,4.75-8.15,9.51-11.95,14.48-2.21,2.89-1.36,5.91,1.68,6.51,4.33.87,8.75,1.33,13.14,1.91,2.33.31,3.37-1.23,3.78-3.15.45-2.09-.9-3.06-2.74-3.49C289.45,206.84,286.92,206.28,283.47,205.51Zm49.9,37.67L326.21,252c-1.06,1.31-2.07,2.64-1.77,4.51.17,1.09.45,2.17,1.54,2.62a2.1,2.1,0,0,0,2.41-.9c4.35-5.1,8.84-10.08,12.94-15.37,2.08-2.68.85-5.61-2.33-6.26-4-.84-8.1-1.4-12.17-2-2-.3-3.68.23-4.09,2.56s.48,3.87,2.85,4.38S330.26,242.55,333.37,243.18ZM287,265.34c.12-1.77,1.57-2.59,2.5-3.73,1.62-2,3.44-3.89,5-6,1.28-1.7,1.84-3.88.1-5.4-2-1.74-3.36.32-4.49,1.63-3.78,4.38-7.56,8.78-11.1,13.36-2.9,3.74-1.84,6.19,2.72,6.88,3.61.55,7.25,1,10.86,1.51,2.31.35,3.91-.2,4.31-2.77s-1.18-3.59-3.31-4S289.08,266.46,287,265.34Zm33.17-50.77c-6.19,3.48-13.31,6.68-19.51,11.42-1.1.84-1.24,2.85-.15,4.24s2.56.92,3.77.27c4-2.15,8-4.41,12-6.66a51.94,51.94,0,0,0,5.87-3.54,3.52,3.52,0,0,0,1.08-4.17C322.89,215.1,322.22,214.23,320.18,214.57Zm30.89-12.84c-.15-.92-.57-3.18-3.13-2a116.62,116.62,0,0,0-17.17,9.55c-1.81,1.25-1.71,3.17-.73,4.93,1.09,1.94,2.61,1,3.94.31,5-2.67,9.92-5.4,14.87-8.12C350.29,205.63,351.19,204.48,351.07,201.73Zm-57.84,31.14c-.18-.84.13-3.36-2.57-2-5.87,2.85-11.63,5.94-17.34,9.11-2,1.09-1.7,3.33-.94,4.92,1.06,2.21,2.84.91,4.27.15,4.56-2.43,9.1-4.9,13.64-7.37C291.92,236.75,293.57,235.86,293.23,232.87Z" transform="translate(-70.85 -40.78)"/><path class="cls-2" d="M376.84,195.83c-3.06-3.32-6.2-2.62-9.33-.16a20.23,20.23,0,0,1-5.36,3.5c-1.16.43-2.44.86-3.53.08-1.33-.94-.49-2.23-.18-3.36a296,296,0,0,0,7.93-41c.86-6.83,1.57-13.69,2-20.56.32-4.69-.55-5.19-4.46-2.91Q315,160,266,188.68a7.29,7.29,0,0,0-4,7.06q.11,60.66,0,121.32c0,1.29-.58,2.95,1,3.71s2.63-.41,3.72-1.2c15.67-11.35,30.52-23.61,43.13-38.4,1.08-1.27,2-3,3.85-3,2.4,0,5.49-.35,6.8,1.81,1.07,1.78-1.37,3.44-2.58,4.91-16.57,20.1-37.09,35.53-58.81,49.51-4,2.56-5.41,1.48-5.41-3.76q0-63.64,0-127.3a46.62,46.62,0,0,0-.67-9.54c-1-5.05,2-8.26,6.15-10.68,13.09-7.64,26.13-15.36,39.22-23q36.3-21.19,72.63-42.3c1.65-1,3.33-2.85,5.4-1.72s1.32,3.57,1.26,5.48A294,294,0,0,1,371.4,173c-.56,2.69-1.72,5.65,1.34,7.46s5.87.38,8.32-1.79C380.78,184.67,378.6,190.2,376.84,195.83Z" transform="translate(-70.85 -40.78)"/><path class="cls-2" d="M141.35,246.45q30.74,16.29,61.47,32.59c6.47,3.44,12.84,7.06,19.34,10.44,7.89,4.09,11.57,1.92,11.67-6.86.13-11.92.1-23.84.18-35.75,0-1.81-.38-3.68.47-5.42,3,.34,5.3,2.45,8.1,3.3q.13,43.37.22,86.73c0,4.16-1.56,5-5.15,2.7-26.65-16.78-50.34-36.82-68.79-62.61-.71-1-1.41-2-2.15-3-4.74-6.28-8.6-6-12.15.92C149.36,262.28,144.22,255,141.35,246.45Z" transform="translate(-70.85 -40.78)"/><path class="cls-2" d="M242.58,244.75c-2.8-.85-5.09-3-8.1-3.3-.19-12.85-.6-25.71-.48-38.56.07-6.68-2.75-10.89-8.5-13.88Q186,168.46,146.68,147.7c-.67-.35-1.35-.71-2.05-1-6.24-2.73-10.24-.2-10.26,6.63-.05,15.16,0,30.31,0,45.9-2-1-2.16-2.77-2.6-4.14a260.78,260.78,0,0,1-12.09-75.86c-.06-4.12,1.07-4.54,5.61-1.92q27,15.61,53.92,31.35c18.87,11,37.62,22.28,56.59,33.15,5.1,2.92,7.29,6.36,7.12,12.44C242.43,211.06,242.64,227.91,242.58,244.75Z" transform="translate(-70.85 -40.78)"/><path class="cls-2" d="M314.54,176.42c-.43,1.73-1,3.94-1.54,6.16q-3.4,13.77-6.81,27.54a12,12,0,0,1-1.14,3.45,3.45,3.45,0,0,1-4.07,1.32c-1.64-.43-1.33-1.93-1.05-3.06q4.35-17.78,8.84-35.51a3.9,3.9,0,0,1,4.34-3.27C314.8,173.21,314.6,174.68,314.54,176.42Z" transform="translate(-70.85 -40.78)"/><path class="cls-2" d="M323.74,174.25c4.06.69,8.14,1.24,12.16,2.1s5,3.54,2.53,6.65c-3.9,4.89-8.05,9.58-12.16,14.29-.84,1-1.81,2.41-3.41,1.26a3.1,3.1,0,0,1-.88-4.47c1.81-2.62,3.94-5,6-7.51,3-3.66,2.9-3.89-1.6-4.68a27.49,27.49,0,0,1-4-.9,3,3,0,0,1-2.15-4C320.63,175.27,321.59,174,323.74,174.25Z" transform="translate(-70.85 -40.78)"/><path class="cls-2" d="M317.08,236.55c-2.77,11.24-5.65,23.13-8.68,35-.52,2-2,3.73-4.4,3-2.25-.72-1.54-2.7-1.15-4.3q3.94-16.28,8-32.52c.37-1.5.74-3,2.05-4,1-.76,2.14-1.32,3.39-.66S317.11,234.83,317.08,236.55Z" transform="translate(-70.85 -40.78)"/><path class="cls-2" d="M283.47,205.51c3.45.77,6,1.33,8.49,1.91,1.84.43,3.19,1.4,2.74,3.49-.41,1.92-1.45,3.46-3.78,3.15-4.39-.58-8.81-1-13.14-1.91-3-.6-3.89-3.62-1.68-6.51,3.8-5,7.88-9.73,11.95-14.48.93-1.09,2.2-2.55,3.85-1a3.15,3.15,0,0,1,.65,4.18,36.41,36.41,0,0,1-3,4C287.75,200.52,285.87,202.69,283.47,205.51Z" transform="translate(-70.85 -40.78)"/><path class="cls-2" d="M333.37,243.18c-3.11-.63-5.46-1.08-7.78-1.59s-3.27-2.05-2.85-4.38,2.08-2.86,4.09-2.56c4.07.59,8.15,1.15,12.17,2,3.18.65,4.41,3.58,2.33,6.26-4.1,5.29-8.59,10.27-12.94,15.37a2.1,2.1,0,0,1-2.41.9c-1.09-.45-1.37-1.53-1.54-2.62-.3-1.87.71-3.2,1.77-4.51Z" transform="translate(-70.85 -40.78)"/><path class="cls-2" d="M287,265.34c2.07,1.12,4.38,1.06,6.58,1.51s3.73,1.41,3.31,4-2,3.12-4.31,2.77c-3.61-.55-7.25-1-10.86-1.51-4.56-.69-5.62-3.14-2.72-6.88,3.54-4.58,7.32-9,11.1-13.36,1.13-1.31,2.51-3.37,4.49-1.63,1.74,1.52,1.18,3.7-.1,5.4-1.55,2.06-3.37,3.93-5,6C288.58,262.75,287.13,263.57,287,265.34Z" transform="translate(-70.85 -40.78)"/><path class="cls-2" d="M320.18,214.57c2-.34,2.71.53,3.08,1.56a3.52,3.52,0,0,1-1.08,4.17,51.94,51.94,0,0,1-5.87,3.54c-4,2.25-8,4.51-12,6.66-1.21.65-2.69,1.1-3.77-.27s-.95-3.4.15-4.24C306.87,221.25,314,218.05,320.18,214.57Z" transform="translate(-70.85 -40.78)"/><path class="cls-2" d="M351.07,201.73c.12,2.75-.78,3.9-2.22,4.69-5,2.72-9.89,5.45-14.87,8.12-1.33.72-2.85,1.63-3.94-.31-1-1.76-1.08-3.68.73-4.93a116.62,116.62,0,0,1,17.17-9.55C350.5,198.55,350.92,200.81,351.07,201.73Z" transform="translate(-70.85 -40.78)"/><path class="cls-2" d="M293.23,232.87c.34,3-1.31,3.88-2.94,4.77-4.54,2.47-9.08,4.94-13.64,7.37-1.43.76-3.21,2.06-4.27-.15-.76-1.59-1-3.83.94-4.92,5.71-3.17,11.47-6.26,17.34-9.11C293.36,229.51,293.05,232,293.23,232.87Z" transform="translate(-70.85 -40.78)"/><path class="cls-3" d="M248.39,138c-1.34.18-2.34-.62-3.37-1.24-10.12-6-20.26-12-30.31-18.16-4.92-3-5-4.95-.16-7.78,10.13-6,20.37-11.83,30.51-17.82a6.9,6.9,0,0,1,7.72,0c10,5.91,20.12,11.66,30.13,17.57,4.5,2.65,4.51,5,0,7.66-10.07,6.13-20.19,12.14-30.3,18.2A8.19,8.19,0,0,1,248.39,138Z" transform="translate(-70.85 -40.78)"/><path class="cls-4" d="M173.13,209.26c0,3.33.05,5.93,0,8.53-.08,3.21-1.73,4.71-4.76,3.26-5.64-2.71-11.14-5.7-16.69-8.59a4.71,4.71,0,0,1-2.52-4.55c0-5.2-.16-10.41,0-15.61.11-4.2,2.14-5.39,6-3.66,2.65,1.18,5.1,2.84,7.81,3.84C171.2,195.55,175.57,200.77,173.13,209.26Zm-7,2.92c1.38-10.08.23-12.18-7.55-14.92-1.39-.49-2.08-.68-2.61,1.09-1.68,5.65-.21,9.24,5.15,11.75C162.63,210.8,164.19,211.38,166.14,212.18Z" transform="translate(-70.85 -40.78)"/><path class="cls-5" d="M193.76,247.73c-.15,11.22-.62,11.5-10,6.53-.14-.07-.26-.17-.39-.24-12.47-6.63-12.8-7.32-11.44-21.27.31-3.15,1.83-4.13,4.57-2.83,5,2.35,10,4.65,14.67,7.44C195.47,239.92,193.14,244.56,193.76,247.73Zm-7.33.29c1.18-3.7.68-6.65-3.41-7.87-1.2-.35-2.71-2.45-3.78-.24-.81,1.71-1.21,3.87,1.13,5.15C182.33,246.14,184.12,247.56,186.43,248Z" transform="translate(-70.85 -40.78)"/><path class="cls-6" d="M218.2,226c-.12,2.59-1.41,3.68-3.86,2.42q-15.9-8.14-31.7-16.47a4.34,4.34,0,0,1-2-6.26c1.31-2.41,3.46-1,5.2-.1,9.62,5,19.22,10,28.84,15C216.91,221.8,218.49,223.25,218.2,226Z" transform="translate(-70.85 -40.78)"/><path class="cls-7" d="M183,218.86c.4.18,1.11.44,1.77.79q15.24,7.83,30.47,15.69c1.39.72,2.61,1.57,3,3.24.3,1.38.52,2.76-.53,3.9-1.21,1.31-2.63.64-3.79,0-10.3-5.29-20.54-10.68-30.83-16a5,5,0,0,1-2.92-5.6C180.33,219.48,181.21,218.85,183,218.86Z" transform="translate(-70.85 -40.78)"/><path class="cls-8" d="M199.11,185.39l1.25.48c3.65,5.82,3,7.81-2.67,8.19a15.43,15.43,0,0,1-2.2-2.23c-1-1.54-1.94-3.23-.78-5.09C195.75,185.08,197.33,184.8,199.11,185.39Z" transform="translate(-70.85 -40.78)"/><path class="cls-9" d="M208.73,199.56c-.27-.82-1-1-1.68-1.12-1.44-1.76-3-3.59-1.85-6,1-2.11,3-2.28,5-1.68C214.56,196,214.15,198.4,208.73,199.56Z" transform="translate(-70.85 -40.78)"/><path class="cls-2" d="M160.83,458.63c-11.61-.85-17.24-9.7-16.52-19.21.79-10.6,8.43-17.15,20.09-16.56,10.77.54,17.47,8.19,16.87,19.29C180.73,452.32,172.17,459.22,160.83,458.63Zm10.78-18c.1-5.53-3.67-9.64-8.85-9.63s-8.92,4.12-9,9.61,3.65,9.61,8.87,9.65C167.7,450.32,171.51,446.23,171.61,440.65Z" transform="translate(-70.85 -40.78)"/><path class="cls-2" d="M185.13,440.37c0-4.43.07-8.87,0-13.3-.06-2.39.52-3.76,3.28-3.66,4.58.16,9.19-.19,13.74.21,9.09.82,14.54,7,14.72,16.23.19,9.4-5.57,16.78-14.39,17.75-4.84.53-9.78.13-14.67.25-2.44.07-2.68-1.4-2.67-3.26,0-4.74,0-9.48,0-14.22Zm13.74-9.23c-4.16-.1-4.5,0-4.57,2.41-.14,4.57,0,9.15,0,13.72,0,1.28.07,2.58,1.8,2.59,3.39,0,6.87,0,9.15-3.05A10.6,10.6,0,0,0,206.54,436,7.42,7.42,0,0,0,198.87,431.14Z" transform="translate(-70.85 -40.78)"/><path class="cls-2" d="M358.29,440.73c0-4.58.21-9.18-.06-13.76-.23-4.06,2.41-3.35,4.79-3.45,2.57-.1,5.13-.32,4.67,3.54a17.65,17.65,0,0,0,0,2.3c.06,6.54.11,6,6.5,6.69,5.72.57,5.26-2.62,5.28-6.28,0-6.4.09-6.23,5.77-6.28,2.92,0,3.63,1.1,3.59,3.78-.12,8.87-.19,17.74,0,26.61.08,3.51-1.54,4.11-4.46,3.93-2.6-.16-5.5.4-4.94-3.8a24.55,24.55,0,0,0,0-3.21c-.12-7.52.79-6.31-6.61-6.68-4.18-.2-5.9,1.07-5.19,5.29a16.82,16.82,0,0,1,0,2.75c0,5.36-2.42,7-7.63,5.58-1.9-.54-1.71-1.92-1.72-3.24C358.27,449.91,358.3,445.32,358.29,440.73Z" transform="translate(-70.85 -40.78)"/><path class="cls-2" d="M319,441.26c0-8.95,3.62-14.64,10.33-17.31,7.05-2.8,16-1.28,20.54,3.56a8.62,8.62,0,0,1,1.9,2.56c.75,2,3.15,4.82.49,5.86-2.36.91-6.08,2.49-8.53-1.33-3.08-4.8-8.16-5.63-12.06-2.29s-4.42,11.49-.77,15.46c3.43,3.72,9.48,4,12.47-.17,2.65-3.72,5.9-2.21,9-2.36,1.52-.08,1.38,1.11,1.09,2.32a12.72,12.72,0,0,1-5.57,8.12c-5.46,3.22-11.77,4.86-17.75,2.22C322.83,454.65,318.41,448.82,319,441.26Z" transform="translate(-70.85 -40.78)"/><path class="cls-2" d="M291.2,440.22c0-4.59.11-9.18,0-13.76-.08-2.41.78-3.21,3.16-3.17,6.26.12,12.53.19,18.79,0,3.24-.1,3.22,1.68,3.3,4,.09,2.55-.28,4.09-3.41,3.84s-6.42,0-9.63-.09c-1.78-.05-2.85.26-2.82,2.46s.47,3.18,2.82,3c1.66-.16,3.39.19,5-.06,4-.64,4.45,1.55,4.33,4.77-.09,2.18-.74,3-2.93,2.83-2-.16-4,.09-6-.1-2.56-.26-3.43.64-3.46,3.27,0,2.87,1.57,2.74,3.51,2.72,3.05,0,6.12.12,9.17,0,2.5-.1,4.1.29,3.91,3.42-.17,2.69-.21,4.7-3.93,4.52-6-.3-11.93-.21-17.88,0-2.94.1-4.15-.77-4-3.85C291.35,449.4,291.2,444.8,291.2,440.22Z" transform="translate(-70.85 -40.78)"/><path class="cls-2" d="M107.47,437.83a15,15,0,0,1,9-13.23c6.73-3.17,13.38-2.6,19.58,1.55a10.86,10.86,0,0,1,3.14,3.3c1.28,2.11,3.38,4.46,1.63,7-1.26,1.79-8,.06-9.45-2.12a6.82,6.82,0,0,0-5.14-3.4,8.16,8.16,0,0,0-9,5.52c-1.78,4.76-.25,10.39,3.48,12.74a7.69,7.69,0,0,0,10.64-1.69c2.8-3.39,6.21-1.48,9.33-1.55,1.41,0,.75,1.71.44,2.62-1.79,5.24-5.6,8.18-10.86,9.49C117.71,461.15,107.43,453.21,107.47,437.83Z" transform="translate(-70.85 -40.78)"/><path class="cls-2" d="M221.33,440.57c0-4.43.1-8.86,0-13.29-.09-2.58.47-3.9,3.48-3.83,6.11.16,12.23.09,18.33-.17,3.53-.14,3,2.19,3.13,4.25.2,2.31-.24,3.86-3.12,3.71-3.36-.17-6.73.09-10.08-.1-2.38-.14-2.73,1-2.84,3-.13,2.19.86,2.59,2.72,2.46,1.67-.13,3.38.16,5-.08,4-.58,5,1.33,4.74,4.94-.14,2-.86,2.68-2.77,2.61-2.13-.09-4.29.12-6.41,0-2.47-.2-3.54.48-3.53,3.23,0,2.92,1.69,2.69,3.57,2.68,2.91,0,5.81.13,8.71,0s4.45.16,4.48,3.81-1.42,4.25-4.57,4.13c-5.8-.22-11.61-.16-17.42-.06-2.54,0-3.56-.85-3.48-3.46.14-4.58,0-9.16,0-13.75Z" transform="translate(-70.85 -40.78)"/><path class="cls-2" d="M269.2,444.21v-5c0-7.13,0-7.27-7-7.91-2.66-.24-2.53-1.81-2.27-3.46s-1.21-4.37,2.27-4.4c7.66-.05,15.32,0,23-.19,2.5-.06,2.88,1.29,2.58,3.15s1.32,4.5-2.35,4.89c-2.26.24-5.34-1.43-6.61,1.13-.93,1.86-.28,4.51-.29,6.8,0,5.21-.24,10.42,0,15.62.14,3-1.41,3.34-3.59,3s-5.7,1.65-5.68-3C269.22,451.26,269.21,447.73,269.2,444.21Z" transform="translate(-70.85 -40.78)"/><path class="cls-10" d="M370.93,386.37c0,4.94-.09,9.88,0,14.81.07,2.49-.18,4-3.35,3.93s-2.88-1.78-2.87-3.85c0-7.8,0-15.6.08-23.4,0-1.44-1-3.92,1.69-3.9s5.74-1.71,7.49,2.26c2.06,4.68,3.4,9.58,5.07,14.38.51,1.47.95,3.32,2.67,3.29s1.47-2.09,1.91-3.28c1.7-4.57,3.43-9.15,4.76-13.84s4.79-2.91,7.52-2.92c3.53,0,1.8,3,1.83,4.51.13,7.64-.1,15.29,0,22.94,0,2.57-.46,4-3.49,3.91-3.3,0-2.7-2.18-2.72-4.08a116,116,0,0,0-.69-14.89c-1.92,5.15-3.87,10.29-5.74,15.46-.71,2-1.34,3.5-4,3.49s-3.22-1.82-3.88-3.68q-2.7-7.65-5.37-15.31Z" transform="translate(-70.85 -40.78)"/><path class="cls-11" d="M94.65,388.57h.46c7.59-.06,8.59,1.47,5.62,8.63-3.2,7.74-13.92,11.16-21.92,7-7.61-4-10.37-15.75-5.58-23.79,4.42-7.41,15.42-9.67,22.56-4.64a9.81,9.81,0,0,1,3.85,4.45c.5,1.35,2.49,3.19.11,4.26-1.6.72-3.61,1.13-5.17-1.22-3.17-4.77-6.83-5.88-11.26-4-4.8,2-7.23,7.12-6.15,13a9.71,9.71,0,0,0,9,8.33,8.79,8.79,0,0,0,8.3-3.91c1.21-1.79,1.91-3.48-1.49-3.23a8.61,8.61,0,0,1-1.83,0c-1.6-.23-3.86.86-4-2.29s2-2.4,3.74-2.48c1.22-.05,2.45,0,3.67,0Z" transform="translate(-70.85 -40.78)"/><path class="cls-12" d="M313.44,405.2c-7.35,0-7.36,0-7.37-7.39,0-6.72.11-13.44-.07-20.16-.08-2.89.65-4.25,3.79-4,2.89.25,5.81,0,8.7.14,9.44.42,14.66,6,14.83,15.63.15,8.95-5.35,15-14.38,15.73C317.12,405.32,315.28,405.2,313.44,405.2Zm-1.11-15.84c0,2.74,0,5.48,0,8.22,0,1.43.31,2.29,2,2.28,4.15,0,8.49.27,10.94-4a12.56,12.56,0,0,0,0-13.07c-1.72-3-8.11-5.06-11.48-3.55-3,1.34-1,4.29-1.45,6.47A18.5,18.5,0,0,0,312.33,389.36Z" transform="translate(-70.85 -40.78)"/><path class="cls-13" d="M239.47,388.21a14.58,14.58,0,0,1,8.78-13.4c6.15-2.74,12.34-2.49,17.89,2a7.26,7.26,0,0,1,3,4.83c.15,1.3,1.82,3.19-.71,3.71-1.72.36-3.64,1.16-5-1.51-2.51-4.78-6.58-6.24-11-4.69-4.73,1.66-7.29,6.88-6.29,12.84.82,5,4.21,8.24,8.89,8.34a8.78,8.78,0,0,0,7.55-3.64c.46-.6.71-1.45,1.28-1.88a4.67,4.67,0,0,1,5.13-.26c1.33.77.23,2.45-.34,3.65-2.88,6-10.15,8.89-17.71,7.1C243.47,403.57,239.49,398.12,239.47,388.21Z" transform="translate(-70.85 -40.78)"/><path class="cls-14" d="M299.11,405.32c-2.34.36-3.93-.44-4.31-2.9-.55-3.43-2.7-4.41-5.88-4.1a17.92,17.92,0,0,1-4.57,0c-2.81-.47-4.18.75-5,3.32-.51,1.6-.73,3.66-3.33,3.67s-4.51-.07-3.06-3.7c3.27-8.18,6.3-16.46,9.31-24.74,1-2.64,2.74-3.12,5.28-3.22,2.71-.11,3.77,1.16,4.59,3.39,3.07,8.29,6.11,16.59,9.43,24.78C302.78,404.77,302.19,405.73,299.11,405.32Zm-16.25-12.49c8.87.51,8.91.5,6.31-7.17-.52-1.54-.64-3.31-2.18-4.66C285.63,384.9,284.3,388.69,282.86,392.83Z" transform="translate(-70.85 -40.78)"/><path class="cls-15" d="M194.67,404.85c-3.75,1.13-6.57.95-7.44-3.44-.41-2.07-1.68-3.07-3.93-2.9a32.73,32.73,0,0,1-5.51-.09c-3.06-.29-5.38.25-5.92,3.87a4.2,4.2,0,0,1-1.54,2.68,5,5,0,0,1-4.44.08c-1.66-.69-.49-2.11-.11-3.12,3.1-8.47,6.3-16.91,9.37-25.39.72-2,1.72-3.15,4-2.83,2,.27,4.34-.77,5.36,2.17C187.82,385.54,191.25,395.16,194.67,404.85ZM175.33,393c2.61,0,4.57,0,6.52,0,.9,0,2.13-.06,1.68-1.36-1.16-3.37-1.63-7-3.94-10.56Z" transform="translate(-70.85 -40.78)"/><path class="cls-16" d="M104.59,405.49c3.84-10.49,7.3-20.26,11-29.94,1.09-2.84,7-2.79,8.2.15,3.62,9.07,6.9,18.28,10.26,27.45.3.82.55,2.06-.82,2.08-1.87,0-4.75,1-5.2-1.47-1.13-6.18-5.54-5.1-9.75-5.37-3.56-.23-5.71.52-6.47,4.41C111,407.1,107.63,404.81,104.59,405.49ZM119.82,381c-1.63,4.2-3.23,7.79-4,11.71,8.64,1,8.65.95,5.94-6.69C121.26,384.52,120.61,383,119.82,381Z" transform="translate(-70.85 -40.78)"/><path class="cls-17" d="M238.21,404.72c-4.27,1.39-7.1.81-8.1-3.52-.5-2.16-1.81-2.94-4-2.78a27.52,27.52,0,0,1-6-.06c-2.83-.41-4.25.74-4.89,3.4a6,6,0,0,1-1.38,2.86c-1.5,1.44-3.63,1.09-5.14.37-1.75-.83-.17-2.39.25-3.5q4.45-11.76,9.1-23.45c.79-2,1-4.4,4.31-4.4,3.13,0,4.48,1.12,5.61,4C231.6,386.55,234,395.93,238.21,404.72Zm-11-11.87c-1.5-3.94-2-7.93-4.46-11.7-1.42,4.05-2.72,7.72-4.12,11.7Z" transform="translate(-70.85 -40.78)"/><path class="cls-18" d="M338.22,389.51c0-4.28.1-8.56,0-12.83-.07-2.23.77-2.93,2.92-2.89,5.19.1,10.39.15,15.58,0,2.44-.08,2.69,1.07,2.77,3,.09,2.21-1.08,2.5-2.84,2.48-3.2-.05-6.42.14-9.62,0-2.51-.14-2.8,1.23-2.56,3.11s-.95,4.31,2.5,4.2c2.44-.08,4.89.06,7.33,0,1.89-.09,2.77.5,2.83,2.54s-.73,2.72-2.67,2.64-4,.21-5.95,0c-3.22-.35-4,.89-4.13,4.07-.1,3.58,1.1,4.51,4.41,4.15,2.57-.27,5.19,0,7.79-.09,1.79,0,3.28-.09,3.18,2.56-.09,2.21-.81,2.89-3,2.84-5.2-.12-10.39-.1-15.59,0-2.15.05-3-.63-2.9-2.86.14-4.27,0-8.55,0-12.83Z" transform="translate(-70.85 -40.78)"/><path class="cls-19" d="M152.5,379.16c-4.08,0-7.74,0-11.4,0-1.73,0-3.26.26-3.2-2.44s1.29-3,3.44-2.93c5.19.07,10.39-.08,15.59,0,1.39,0,3.32-.9,4.08,1a5.18,5.18,0,0,1-.87,5.17c-3.79,5.18-7.48,10.43-11.18,15.66-.77,1.1-1.45,2.26-2.73,4.26,4.25,0,7.8,0,11.35,0,2.06,0,3.84-.18,3.93,2.9.12,3.72-2.48,2.38-4.08,2.43-5.5.15-11,.09-16.51.05-3.94,0-4.66-1.08-2.66-4.61,1.8-3.17,4.08-6.08,6.18-9.08C147.13,387.73,150.12,384.11,152.5,379.16Z" transform="translate(-70.85 -40.78)"/><path class="cls-20" d="M415.82,387.27c1.84-3.35,3.77-6.32,5.17-9.52,1.66-3.78,4.18-4.83,8.16-3.48-1.48,4.62-4.08,8.63-6.72,12.46-3.37,4.89-3.94,10.12-3.56,15.7.15,2.24-.88,3-3,2.87-1.75-.1-3.74,0-3.33-2.51,1.64-9.93-4.55-17-8.71-24.86-.6-1.13-3.52-2.64-1.08-3.8,1.75-.84,4.91-1.58,6.5,1.34,1.74,3.23,3.37,6.51,5.09,9.75A21,21,0,0,0,415.82,387.27Z" transform="translate(-70.85 -40.78)"/></svg>